<svg width="1439" height="492" viewBox="0 0 1439 492" fill="none" xmlns="http://www.w3.org/2000/svg">
<path fill-rule="evenodd" clip-rule="evenodd" d="M1431.38 98.106C1433.69 93.7232 1435.95 89.2918 1438.21 84.8522V185.561H1438V491.949H-2V184.949H-1.79492V48.0642C1.77894 41.8533 6.11681 35.753 10.4824 29.6138C16.8574 20.6488 23.2916 11.6007 27.4923 2.00301C15.1517 34.5262 10.2788 69.3929 13.2317 104.04C15.6823 76.6313 22.7803 49.8356 34.2233 24.7939C31.7379 56.7172 30.8035 88.6554 31.4201 120.609C47.0602 82.5552 54.5744 41.6703 53.4833 0.561035C56.7401 42.425 61.673 84.0724 68.2817 125.503C69.4021 91.5466 73.8675 57.7821 81.6134 24.6965C79.1488 59.5365 79.6327 94.5216 83.0598 129.281C91.8794 101.868 96.6905 73.3314 97.3449 44.5507C98.7927 70.0671 100.242 95.5808 101.692 121.092C108.283 95.1476 111.177 68.4074 110.289 41.6587C113.343 69.9123 118.491 97.9018 125.691 125.397C127.34 91.8196 127.928 58.2418 127.455 24.664L143.834 126.238C150.048 86.9646 149.877 46.9498 143.329 7.73018C154.672 48.538 162.463 90.2451 166.615 132.388C169.288 93.1884 170.191 53.9769 169.324 14.7531C172.306 54.3579 178.162 93.6954 186.844 132.457C182.982 93.447 191.518 53.3405 210.973 19.0911C199.197 54.1881 194.57 91.2763 197.365 128.18C200.095 94.3975 216.14 61.8135 241.43 38.6895C223.009 63.4463 213.475 94.4179 214.86 125.024C220.345 95.7623 239.804 69.3116 266.386 54.9124C246.85 74.3982 233.446 99.1471 227.821 126.12C239.002 98.7559 261.819 76.168 289.672 64.9452C269.768 79.8399 255.043 101.246 248.418 124.902C262.727 100.974 285.87 82.2445 312.558 72.9917C294.648 89.6711 280.364 109.839 270.591 132.246C284.444 112.517 305.244 92.127 328.905 84.6248C309.685 97.9395 294.956 117.371 287.504 139.24C297.691 124.601 311.262 112.62 327.071 104.308C319.184 115.373 313.501 127.843 310.329 141.044C328.458 125.744 344.035 107.673 356.481 87.5046C351.333 104.266 346.188 121.031 341.047 137.798C354.386 116.763 371.583 98.4237 391.737 83.7393C377.697 98.8702 368.54 117.856 365.453 138.237L405.566 87.2609C399.196 104.676 394.229 122.57 390.71 140.771C405.271 122.069 418.412 102.311 430.025 81.6596C426.546 109.235 424.89 137.009 425.066 164.801C435.215 139.264 442.744 112.767 447.537 85.7174C447.548 113.208 448.538 140.654 450.507 168.055C457.913 137.366 461.242 105.841 460.408 74.2874L476.543 166.304C482.137 135.554 482.352 104.071 477.178 73.2476L504.396 167.194C508.339 136.459 504.891 105.23 494.336 76.0868L531.719 152.161C531.388 128.059 526.378 104.249 516.965 82.0455C527.73 103.933 538.498 125.821 549.268 147.709C547.109 124.041 541.473 100.818 532.538 78.7838L574.057 141.795L554.365 70.0793C565.964 92.8698 580.207 114.224 596.8 133.704C589.91 108.318 580.573 83.6563 568.919 60.0628C584.201 82.9217 602.102 103.928 622.262 122.656C614.834 104.087 610.414 84.4587 609.166 64.5065C614.576 84.0636 622.061 102.99 631.494 120.966C629.574 104.32 631.078 87.4584 635.915 71.4116C636.847 89.874 637.777 108.338 638.706 126.803C640.34 106.265 647.547 86.5577 659.555 69.7909C655.043 85.6434 651.93 101.859 650.253 118.253C656.112 96.2497 670.401 76.4767 689.657 63.7551C676.826 79.3867 669.017 98.5094 667.248 118.63C680.621 96.7288 698.113 77.6088 718.761 62.3212C701.94 81.1412 688.909 103.012 680.38 126.742C696.303 107.88 714.196 90.7618 733.755 75.6765C719.965 92.5874 708.272 111.096 698.931 130.8C712.864 112.359 731.089 97.5753 752.033 87.7239C734.039 101.825 720.681 120.966 713.676 142.689C729.665 121.458 750.434 104.27 774.308 92.5087C754.873 106.425 741.065 127.656 736.416 150.808C750.702 133.718 767.977 119.351 787.404 108.403C775.694 122.328 765.363 137.349 756.556 153.257C769.419 139.682 783.703 127.518 799.163 116.973C790.949 129.137 784.609 142.459 780.355 156.495C790.34 144.17 800.948 132.359 812.136 121.108C805.243 132.539 802.182 145.861 803.396 159.143C807.558 152.163 812.53 145.929 817.535 139.653C820.973 135.343 824.426 131.013 827.643 126.409L835.323 156.535C838.326 144.916 840.309 133.058 841.252 121.096C846.267 133.694 848.633 147.184 848.203 160.731C852.013 144.569 853.896 128.015 853.813 111.413C859.235 128.307 861.975 145.942 861.934 163.68C864.995 136.255 867.116 108.77 868.298 81.225L886.34 163.546L885.655 82.8619C890.088 109.02 895.521 134.962 901.953 160.687C903.629 133.966 902.262 107.143 897.879 80.7294C912.508 106.858 924.441 134.399 933.493 162.929C934.471 134.863 928.26 107.011 915.448 82.0008C934.004 102.889 948.227 127.234 957.296 153.631C954.044 129.293 948.915 105.241 941.956 81.6881L976.972 151.011C973.899 132.958 974.692 114.46 979.299 96.7331C981.486 115.97 985.121 135.015 990.173 153.708C987.513 132.351 998.176 109.922 1016.58 98.171C1012.16 113.462 1010.21 129.357 1010.8 145.26C1013.95 125.8 1024.71 107.611 1040.38 95.2545C1035.13 111.033 1031.42 127.28 1029.3 143.769C1036.54 123.801 1050.94 106.4 1069.38 95.3236C1060.61 110.184 1054.75 126.57 1052.12 143.611C1059.99 123.862 1075.29 107.014 1094.41 97.054C1084.61 112.37 1078.53 129.755 1076.65 147.827C1085.4 130.742 1098.3 116.108 1114.17 105.255C1103.65 120.767 1095.21 137.585 1089.08 155.28C1095.58 140.159 1106.32 127.231 1120.01 118.05C1114.79 131.34 1109.56 144.619 1104.34 157.888C1110.3 144.187 1120.5 132.742 1133.45 125.219C1127.3 136.713 1123.35 149.247 1121.81 162.181C1128.37 149.011 1137.02 136.985 1147.43 126.567L1140.61 160.784C1144.01 150.654 1148.93 141.1 1155.23 132.453V156.556C1161.65 147.149 1166.09 136.534 1168.26 125.361C1170.37 137.052 1173.74 148.48 1178.32 159.444C1182.33 132.917 1180.3 105.832 1172.38 80.1933C1187.56 105.264 1200.33 131.706 1210.52 159.167C1206.59 132.061 1201.17 105.19 1194.28 78.6782C1213.09 104.478 1226.49 133.794 1233.68 164.874C1230.39 134.106 1223.89 103.764 1214.28 74.3442C1237.63 97.8925 1255.3 126.426 1265.95 157.786C1260.7 128.386 1253.21 99.428 1243.54 71.1638C1268.1 91.343 1286.09 119.061 1294.35 149.395C1288.71 126.471 1284.86 103.148 1282.83 79.6328L1313.64 153.745C1307.02 126.856 1312.15 97.3748 1327.5 74.133C1326.68 99.9735 1329.42 125.804 1335.65 150.902C1340.66 123.19 1352.45 97.138 1369.97 75.051C1361.91 98.4695 1358.84 123.309 1360.97 147.977C1369.63 124.461 1382.52 102.714 1399 83.8002C1390.52 102.574 1386.89 123.167 1388.44 143.698C1386.96 123.699 1409.01 101.569 1423.04 89.9011C1415.72 106.407 1412.88 124.538 1414.8 142.482C1413.62 131.197 1423.22 113.32 1429.35 101.907C1430.08 100.54 1430.77 99.2652 1431.38 98.106Z" fill="#0D3727"/>
</svg>
