<svg width="1111" height="279" viewBox="0 0 1111 279" fill="none" xmlns="http://www.w3.org/2000/svg">
<path d="M274.39 86.099C274.003 86.744 274.39 87.647 275.422 88.421C281.872 93.581 293.224 96.935 304.06 96.935C323.926 96.935 337.213 85.454 337.213 68.297C337.213 39.917 300.706 40.433 300.706 32.822C300.706 29.984 303.286 28.178 307.285 28.178C311.8 28.565 319.153 31.274 325.474 34.886C326.506 35.531 327.409 35.144 327.796 33.854L335.923 15.665C336.31 15.02 335.923 13.988 334.891 13.343C326.764 7.79599 315.154 4.05499 305.995 4.05499C286.387 4.05499 273.358 15.536 273.358 32.822C273.358 60.944 309.607 60.557 309.607 68.168C309.607 71.135 306.898 73.07 302.77 73.07C297.868 72.683 290.773 70.232 284.839 66.878C283.807 66.233 282.904 66.62 282.517 67.91L274.39 86.099ZM371.16 71.78V7.925C371.16 6.893 370.257 5.98999 369.225 5.98999H346.392C345.36 5.98999 344.457 6.893 344.457 7.925V93.194C344.457 94.097 345.36 95 346.392 95H392.961C393.993 95 394.896 94.097 395.025 93.194L396.831 73.586C396.831 72.554 396.057 71.78 395.154 71.78H371.16ZM446.785 96.806C419.308 96.806 400.99 78.23 400.99 50.495C400.99 22.502 419.308 3.926 446.785 3.926C474.262 3.926 492.58 22.502 492.58 50.495C492.58 78.23 474.262 96.806 446.785 96.806ZM446.785 29.984C436.207 29.984 429.112 38.24 429.112 50.495C429.112 62.75 436.207 71.006 446.785 71.006C457.363 71.006 464.458 62.75 464.458 50.495C464.458 38.24 457.363 29.984 446.785 29.984ZM585.308 5.98999C584.018 5.98999 582.599 7.02199 582.341 8.183L574.988 46.754L565.055 8.183C564.668 6.893 563.12 5.98999 561.572 5.98999H542.996C541.448 5.98999 539.9 6.893 539.513 8.183L529.58 46.754L522.227 8.183C521.969 7.02199 520.55 5.98999 519.26 5.98999H490.364C489.074 5.98999 488.429 7.02199 488.816 8.183L512.294 92.936C512.681 94.097 513.971 95 515.132 95H537.578C538.739 95 540.287 94.097 540.545 92.936L552.284 47.528L564.023 92.936C564.281 94.097 565.829 95 566.99 95H589.436C590.597 95 591.887 94.097 592.274 92.936L615.752 8.183C616.139 7.02199 615.494 5.98999 614.204 5.98999H585.308ZM709.11 5.98999C707.433 5.98999 705.498 7.15099 704.724 8.57L686.922 57.848L669.12 8.57C668.346 7.15099 666.411 5.98999 664.734 5.98999H637.773C636.741 5.98999 635.967 6.893 635.967 7.925V93.194C635.967 94.097 636.741 95 637.773 95H661.638C662.67 95 663.573 94.097 663.573 93.194V55.268L676.602 93.065C676.989 94.097 678.666 95 679.827 95H694.017C695.178 95 696.855 94.097 697.242 93.065L710.271 55.268V93.194C710.271 94.097 711.174 95 712.206 95H736.071C737.103 95 737.877 94.097 737.877 93.194V7.925C737.877 6.893 737.103 5.98999 736.071 5.98999H709.11ZM791.709 96.806C764.232 96.806 745.914 78.23 745.914 50.495C745.914 22.502 764.232 3.926 791.709 3.926C819.186 3.926 837.504 22.502 837.504 50.495C837.504 78.23 819.186 96.806 791.709 96.806ZM791.709 29.984C781.131 29.984 774.036 38.24 774.036 50.495C774.036 62.75 781.131 71.006 791.709 71.006C802.287 71.006 809.382 62.75 809.382 50.495C809.382 38.24 802.287 29.984 791.709 29.984Z" fill="#E6FFF1"/>
<path d="M48.989 249.752C48.413 250.712 48.989 252.056 50.525 253.208C60.125 260.888 77.021 265.88 93.149 265.88C122.717 265.88 142.493 248.792 142.493 223.256C142.493 181.016 88.157 181.784 88.157 170.456C88.157 166.232 91.997 163.544 97.949 163.544C104.669 164.12 115.613 168.152 125.021 173.528C126.557 174.488 127.901 173.912 128.477 171.992L140.573 144.92C141.149 143.96 140.573 142.424 139.037 141.464C126.941 133.208 109.661 127.64 96.029 127.64C66.845 127.64 47.453 144.728 47.453 170.456C47.453 212.312 101.405 211.736 101.405 223.064C101.405 227.48 97.373 230.36 91.229 230.36C83.933 229.784 73.373 226.136 64.541 221.144C63.005 220.184 61.661 220.76 61.085 222.68L48.989 249.752ZM193.019 228.44V133.4C193.019 131.864 191.675 130.52 190.139 130.52H156.155C154.619 130.52 153.275 131.864 153.275 133.4V260.312C153.275 261.656 154.619 263 156.155 263H225.467C227.003 263 228.347 261.656 228.539 260.312L231.227 231.128C231.227 229.592 230.075 228.44 228.731 228.44H193.019ZM305.578 265.688C264.682 265.688 237.418 238.04 237.418 196.76C237.418 155.096 264.682 127.448 305.578 127.448C346.474 127.448 373.738 155.096 373.738 196.76C373.738 238.04 346.474 265.688 305.578 265.688ZM305.578 166.232C289.834 166.232 279.274 178.52 279.274 196.76C279.274 215 289.834 227.288 305.578 227.288C321.322 227.288 331.882 215 331.882 196.76C331.882 178.52 321.322 166.232 305.578 166.232ZM377.801 130.52C376.457 130.52 375.113 131.864 375.113 133.4V162.392C375.113 163.928 376.457 165.08 377.801 165.08H409.673V260.312C409.673 261.656 411.017 263 412.553 263H446.537C448.073 263 449.225 261.656 449.225 260.312V165.08H477.833C479.177 165.08 480.713 163.928 480.905 162.392L483.785 133.208C483.977 131.864 482.825 130.52 481.097 130.52H377.801ZM561.815 130.52C560.279 130.52 559.127 131.864 559.127 133.4V183.512H532.247V133.4C532.247 131.864 531.095 130.52 529.367 130.52H493.463C492.119 130.52 490.775 131.864 490.775 133.4V260.312C490.775 261.656 492.119 263 493.463 263H529.367C531.095 263 532.247 261.656 532.247 260.312V217.304H559.127V260.312C559.127 261.656 560.279 263 561.815 263H597.719C599.447 263 600.599 261.656 600.599 260.312V133.4C600.599 131.864 599.447 130.52 597.719 130.52H561.815ZM731.627 224.6C730.859 222.872 729.515 222.296 727.979 223.064C720.875 227.096 713.963 228.44 705.707 228.44C688.427 228.44 676.907 215.768 676.907 196.76C676.907 177.752 688.427 165.08 705.707 165.08C713.963 165.08 720.875 166.424 727.979 170.456C729.515 171.224 730.859 170.648 731.627 168.92L744.299 142.232C744.875 140.888 744.107 139.544 742.571 138.776C731.435 131.864 716.459 127.64 702.251 127.64C662.699 127.64 636.203 155.288 636.203 196.76C636.203 238.232 662.699 265.88 702.251 265.88C716.459 265.88 731.435 261.656 742.571 254.744C744.107 253.976 744.875 252.632 744.299 251.288L731.627 224.6ZM794.894 228.44V133.4C794.894 131.864 793.55 130.52 792.014 130.52H758.03C756.494 130.52 755.15 131.864 755.15 133.4V260.312C755.15 261.656 756.494 263 758.03 263H827.342C828.878 263 830.222 261.656 830.414 260.312L833.102 231.128C833.102 229.592 831.95 228.44 830.606 228.44H794.894ZM909.757 130.52C908.029 130.52 906.493 132.056 906.493 133.784V217.496C906.493 226.136 901.501 231.32 893.053 231.32C884.605 231.32 879.613 226.136 879.613 217.304V133.784C879.613 132.056 878.269 130.52 876.349 130.52H843.325C841.597 130.52 840.061 132.056 840.061 133.784V213.848C840.445 247.832 858.685 265.688 893.053 265.688C927.805 265.688 946.045 247.832 946.045 213.848V133.784C946.045 132.056 944.701 130.52 942.781 130.52H909.757ZM961.463 130.52C959.927 130.52 958.775 132.056 958.775 133.4V260.312C958.775 261.656 959.927 263 961.463 263H1022.33C1047.29 263 1063.99 248.024 1063.99 225.56C1063.99 209.624 1056.12 198.104 1044.02 195.032C1054.39 191.96 1061.11 181.784 1061.11 167.96C1061.11 145.496 1044.41 130.52 1019.26 130.52H961.463ZM998.327 182.552V164.888H1010.42C1016.18 164.888 1020.02 168.344 1020.02 173.72C1020.02 179.096 1016.18 182.552 1010.42 182.552H998.327ZM998.327 228.632V210.2H1013.88C1019.45 210.2 1023.29 213.848 1023.29 219.416C1023.29 224.984 1019.45 228.632 1013.88 228.632H998.327Z" fill="#E6FFF1"/>
</svg>
