<svg width="1440" height="527" viewBox="0 0 1440 527" fill="none" xmlns="http://www.w3.org/2000/svg">
<path d="M-60.5586 141.634L-68.5217 163.081C-39.1872 209.018 -5.41199 247.004 28.7127 278.103L40.6257 239.487L42.0917 289.941C138.616 372.797 233.477 401.875 233.477 401.875C225.3 360.781 213.719 324.334 199.705 291.973L171.823 293.771L194.742 280.944C144.629 172.799 66.9285 112.61 0.329869 79.3597L-24.6203 90.7319L-8.4635 75.0699C-74.6117 43.8489 -127.645 39.0679 -127.645 39.0679C-113.864 80.3058 -95.7159 119.253 -73.5021 155.263L-60.5586 141.634Z" fill="#0D3727"/>
<path d="M-117.443 45.9397C-117.443 45.9397 133.263 214.027 226.863 393.298C226.863 393.298 152.654 250.91 -117.443 45.9397Z" fill="#0D5137"/>
<path d="M-38.3079 108.677L8.45886 94.2827L-33.8248 109.858L-38.3079 108.677Z" fill="#0D5137"/>
<path d="M5.83011 146.331L22.7887 227.638L10.9388 148.413L5.83011 146.331Z" fill="#0D5137"/>
<path d="M43.1985 177.261L103.021 170.951L48.1298 180.061L43.1985 177.261Z" fill="#0D5137"/>
<path d="M103.199 236.01L121.556 307.226L98.902 230.997L103.199 236.01Z" fill="#0D5137"/>
<path d="M145.425 276.889L178.905 275.772L145.717 280.246L145.425 276.889Z" fill="#0D5137"/>
<path d="M173.461 317.476L177.225 344.777L177.494 316.511L173.461 317.476Z" fill="#0D5137"/>
<path d="M1468.01 221.695L1478.78 240.631C1458.25 288.297 1432.33 329.173 1405.03 363.629L1387.91 329.164L1394.27 376.805C1316.25 469.466 1231.56 511.332 1231.56 511.332C1232.94 471.458 1238.24 435.431 1246.45 402.869L1272.93 400.286L1249.43 391.744C1279.95 282.429 1343.75 213.956 1401.24 172.501L1426.43 179.365L1408.85 167.122C1466.23 127.643 1515.34 115.023 1515.34 115.023C1508.71 155.89 1497.62 195.274 1482.26 232.52L1468.01 221.695Z" fill="#0D3727"/>
<path d="M1506.8 123.044C1506.8 123.044 1296.95 319.434 1236.46 502.257C1236.46 502.257 1284.38 357.068 1506.8 123.044Z" fill="#0D5137"/>
<path d="M1442.05 194.132L1395.89 187.771L1438.02 195.929L1442.05 194.132Z" fill="#0D5137"/>
<path d="M1406.34 236.284L1402.86 315.295L1401.85 239.023L1406.34 236.284Z" fill="#0D5137"/>
<path d="M1375.96 271.078L1318.77 274.316L1371.75 274.465L1375.96 271.078Z" fill="#0D5137"/>
<path d="M1328.57 335.485L1322.24 405.227L1331.85 330.116L1328.57 335.485Z" fill="#0D5137"/>
<path d="M1295.15 380.374L1263.52 384.456L1295.39 383.574L1295.15 380.374Z" fill="#0D5137"/>
<path d="M1275.03 422.815L1275.67 449.049L1271.09 422.527L1275.03 422.815Z" fill="#0D5137"/>
</svg>
