<svg width="1440" height="493" viewBox="0 0 1440 493" fill="none" xmlns="http://www.w3.org/2000/svg">
<path d="M477.564 303.484C500.241 303.484 522.961 303.057 545.723 302.202C711.364 295.964 879.888 267.107 1046.62 216.444C1330.5 130.172 1513.28 8.8043 1515.08 7.58644L1510.33 0.484375C1508.53 1.69369 1326.61 122.467 1043.86 208.346C783.053 287.558 380.628 352.434 -55.4037 211.666L-58.0179 219.785C114.22 275.409 294.088 303.484 477.564 303.484Z" fill="#B8E2CB"/>
<path d="M1054.8 230.008C1032.59 234.561 1010.24 238.704 987.775 242.437C824.255 269.584 653.369 275.153 479.863 258.999C184.438 231.485 -18.9895 149.29 -20.9929 148.457L-17.7732 140.548C-15.7631 141.37 186.701 223.157 480.936 250.513C752.337 275.745 1159.59 258.496 1558.48 33.0446L1562.67 40.4734C1405.11 129.549 1234.54 193.167 1054.8 230.008Z" fill="#BBF0D2"/>
<path d="M-21.3703 180.89L-34.8141 196.399C-24.6369 244.228 -8.22553 286.776 10.6485 323.648L32.8171 294.96L18.1598 337.807C73.1557 437.81 143.689 492.112 143.689 492.112C149.762 455.014 151.51 420.749 149.928 389.149L125.939 381.879L149.233 378.321C141.19 271.688 94.8701 196.655 49.3927 147.749L24.8511 149.445L43.3565 141.376C-2.38149 94.3162 -45.4279 73.5987 -45.4279 73.5987C-46.8378 112.582 -43.8573 151.016 -36.5358 188.263L-21.3703 180.89Z" fill="#0D3727"/>
<path d="M-39.0211 82.5847C-39.0211 82.5847 118.659 302.745 140.834 482.824C140.834 482.824 123.334 339.836 -39.0211 82.5847Z" fill="#0D5137"/>
<path d="M7.70134 160.21L51.5225 162.845L11.0955 162.614L7.70134 160.21Z" fill="#0D5137"/>
<path d="M-10.0116 129.853L-11.8282 154.904L-12.229 126.148L-10.0116 129.853Z" fill="#0D5137"/>
<path d="M32.9227 205.743L21.564 279.388L36.5587 209.101L32.9227 205.743Z" fill="#0D5137"/>
<path d="M54.5751 243.494L106.818 257.033L57.8361 247.399L54.5751 243.494Z" fill="#0D5137"/>
<path d="M86.4798 311.744L79.4735 377.353L84.448 306.18L86.4798 311.744Z" fill="#0D5137"/>
<path d="M109.079 359.384L137.558 368.989L108.268 362.296L109.079 359.384Z" fill="#0D5137"/>
<path d="M119.85 402.31L114.414 426.43L123.542 402.769L119.85 402.31Z" fill="#0D5137"/>
<path d="M1443.2 88.2003L1445.9 101.336C1424.82 125.336 1401.86 144.335 1379.32 159.313L1375.86 135.879L1370.52 164.979C1307.21 204.384 1249.66 212.78 1249.66 212.78C1258.06 189.699 1268.02 169.615 1279.02 152.114L1295.01 155.64L1282.88 146.167C1321.55 87.9754 1371.92 60.0265 1413.47 46.6958L1426.91 55.5073L1418.95 44.9938C1460.05 32.7986 1491.21 34.7534 1491.21 34.7534C1479.55 57.4176 1465.56 78.3658 1449.49 97.2493L1443.2 88.2003Z" fill="#BBF0D2"/>
<path d="M1484.68 37.8256C1484.68 37.8256 1324.46 112.874 1254.26 208.4C1254.26 208.4 1309.94 132.515 1484.68 37.8256Z" fill="#E6FFF1"/>
<path d="M1433.25 67.1238L1407.43 54.6177L1430.54 67.4088L1433.25 67.1238Z" fill="#E6FFF1"/>
<path d="M1404.32 85.0066L1387.25 130.603L1401.17 85.7577L1404.32 85.0066Z" fill="#E6FFF1"/>
<path d="M1379.91 99.597L1345.82 90.6118L1376.81 100.78L1379.91 99.597Z" fill="#E6FFF1"/>
<path d="M1339.92 128.289L1322.94 167.914L1342.85 125.768L1339.92 128.289Z" fill="#E6FFF1"/>
<path d="M1311.81 148.211L1292.51 144.581L1311.34 150.13L1311.81 148.211Z" fill="#E6FFF1"/>
<path d="M1291.95 169.228L1287.34 184.71L1289.7 168.31L1291.95 169.228Z" fill="#E6FFF1"/>
<path d="M1448.74 113.279L1456.86 123.952C1448.23 154.713 1435.76 181.772 1421.91 205.026L1408.65 185.396L1416.42 213.945C1376.39 276.856 1328.14 309.321 1328.14 309.321C1325.73 284.879 1326.02 262.464 1328.37 241.925L1344.31 238.186L1329.27 234.894C1338.96 165.702 1372.29 118.71 1403.99 88.7187L1419.92 90.8483L1408.19 84.815C1439.97 56.0385 1468.91 44.3254 1468.91 44.3254C1468.2 69.8023 1464.65 94.7385 1458.32 118.719L1448.74 113.279Z" fill="#B8E2CA"/>
<path d="M1464.35 49.9168C1464.35 49.9168 1352.36 186.891 1330.39 303.383C1330.39 303.383 1347.76 210.88 1464.35 49.9168Z" fill="#E6FFF1"/>
<path d="M1430.65 98.5821L1401.97 98.4727L1428.34 100.008L1430.65 98.5821Z" fill="#E6FFF1"/>
<path d="M1443.47 79.5279L1443.61 95.9377L1445.07 77.2045L1443.47 79.5279Z" fill="#E6FFF1"/>
<path d="M1412.31 127.219L1416.64 175.712L1409.8 129.257L1412.31 127.219Z" fill="#E6FFF1"/>
<path d="M1396.62 150.931L1361.99 157.58L1394.33 153.342L1396.62 150.931Z" fill="#E6FFF1"/>
<path d="M1372.97 194.1L1374.8 237.172L1374.52 190.557L1372.97 194.1Z" fill="#E6FFF1"/>
<path d="M1356.24 224.221L1337.27 229.296L1356.65 226.154L1356.24 224.221Z" fill="#E6FFF1"/>
<path d="M1347.43 251.761L1349.97 267.714L1345 251.906L1347.43 251.761Z" fill="#E6FFF1"/>
</svg>
