<svg width="140" height="17" viewBox="0 0 140 17" fill="none" xmlns="http://www.w3.org/2000/svg">
<path d="M0 10.6404C0 14.7381 2.00646 16.9733 6.43452 16.9733C10.8856 16.9733 12.8921 14.7381 12.8921 10.6404V0.326089H11.001V10.3377C11.001 13.6671 9.82475 15.3435 6.43452 15.3435C3.04429 15.3435 1.89115 13.6671 1.89115 10.3377V0.326089H0V10.6404Z" fill="#E6FFF1"/>
<path d="M15.7539 0.326089H17.645V14.8313L17.3452 16.2049H17.8756L25.9707 0.326089H29.7761V16.7405H27.908V2.23528L28.2078 0.861595H27.6773L19.5592 16.7405H15.7539V0.326089Z" fill="#E6FFF1"/>
<path d="M47.3827 8.52163C47.3827 13.3179 44.546 16.9733 39.772 16.9733C35.6207 16.9733 32.8993 14.4587 32.4149 10.3843H34.3061C34.6751 13.5274 36.5893 15.3435 39.772 15.3435C43.5543 15.3435 45.4916 12.503 45.4916 8.52163C45.4916 4.56356 43.5543 1.72306 39.772 1.72306C36.5893 1.72306 34.6751 3.51583 34.3061 6.65901H32.4149C32.8993 2.6078 35.6207 0.0932617 39.772 0.0932617C44.546 0.0932617 47.3827 3.74866 47.3827 8.52163Z" fill="#E6FFF1"/>
<path d="M49.7796 8.52163C49.7796 13.3179 52.5933 16.9733 57.3903 16.9733C62.1413 16.9733 64.9549 13.3179 64.9549 8.52163C64.9549 3.74866 62.1413 0.0932617 57.3903 0.0932617C52.5933 0.0932617 49.7796 3.74866 49.7796 8.52163ZM51.6708 8.52163C51.6708 4.61012 53.5388 1.72306 57.3903 1.72306C61.2188 1.72306 63.0638 4.61012 63.0638 8.52163C63.0638 12.4564 61.2188 15.3435 57.3903 15.3435C53.5388 15.3435 51.6708 12.4564 51.6708 8.52163Z" fill="#E6FFF1"/>
<path d="M67.6452 16.7405H69.5363V2.23528L69.2365 0.861593H69.7669L74.4256 16.7405H78.231L82.8897 0.861593H83.4432L83.1203 2.23528V16.7405H85.0114V0.326089H81.2292L76.5935 16.2049H76.0631L71.4505 0.326089H67.6452V16.7405Z" fill="#E6FFF1"/>
<path d="M88.1179 16.7405H90.009V2.23528L89.7092 0.861593H90.2397L94.8984 16.7405H98.7037L103.362 0.861593H103.916L103.593 2.23528V16.7405H105.484V0.326089H101.702L97.0663 16.2049H96.5358L91.9233 0.326089H88.1179V16.7405Z" fill="#E6FFF1"/>
<path d="M108.112 8.52163C108.112 13.3179 110.926 16.9733 115.723 16.9733C120.474 16.9733 123.288 13.3179 123.288 8.52163C123.288 3.74866 120.474 0.0932617 115.723 0.0932617C110.926 0.0932617 108.112 3.74866 108.112 8.52163ZM110.003 8.52163C110.003 4.61012 111.871 1.72306 115.723 1.72306C119.551 1.72306 121.396 4.61012 121.396 8.52163C121.396 12.4564 119.551 15.3435 115.723 15.3435C111.871 15.3435 110.003 12.4564 110.003 8.52163Z" fill="#E6FFF1"/>
<path d="M125.978 0.326089H127.869V14.8313L127.569 16.2049H128.1L136.195 0.326089H140V16.7405H138.132V2.23528L138.432 0.861595H137.901L129.783 16.7405H125.978V0.326089Z" fill="#E6FFF1"/>
</svg>
