<svg width="1440" height="1656" viewBox="0 0 1440 1656" fill="none" xmlns="http://www.w3.org/2000/svg">
<path fill-rule="evenodd" clip-rule="evenodd" d="M1433.17 97.303C1435.48 92.9312 1437.74 88.5107 1440 84.0821V253V1403V1404V1608.61C1436.43 1614.81 1432.09 1620.89 1427.72 1627.02L1427.72 1627.02C1421.35 1635.96 1414.91 1644.99 1410.71 1654.56C1423.05 1622.12 1427.93 1587.34 1424.97 1552.78C1422.52 1580.12 1415.42 1606.85 1403.98 1631.83C1406.47 1599.98 1407.4 1568.12 1406.79 1536.25C1391.14 1574.21 1383.63 1614.99 1384.72 1656C1381.46 1614.24 1376.53 1572.7 1369.92 1531.37C1368.8 1565.24 1364.34 1598.92 1356.59 1631.92C1359.06 1597.17 1358.57 1562.27 1355.15 1527.6C1346.33 1554.94 1341.51 1583.41 1340.86 1612.12C1339.41 1586.67 1337.96 1561.22 1336.51 1535.77C1329.92 1561.65 1327.03 1588.32 1327.92 1615C1324.86 1586.82 1319.71 1558.9 1312.51 1531.47C1310.87 1564.97 1310.28 1598.46 1310.75 1631.96L1294.37 1530.63C1288.16 1569.81 1288.33 1609.73 1294.88 1648.85C1283.53 1608.14 1275.74 1566.54 1271.59 1524.5C1268.92 1563.6 1268.01 1602.72 1268.88 1641.84C1265.9 1602.34 1260.04 1563.1 1251.36 1524.43C1255.22 1563.34 1246.69 1603.35 1227.23 1637.52C1239.01 1602.51 1243.63 1565.51 1240.84 1528.7C1238.11 1562.4 1222.07 1594.9 1196.78 1617.97C1215.2 1593.27 1224.73 1562.38 1223.34 1531.85C1217.86 1561.03 1198.4 1587.42 1171.82 1601.78C1191.36 1582.35 1204.76 1557.66 1210.38 1530.75C1199.2 1558.05 1176.39 1580.58 1148.53 1591.78C1168.44 1576.92 1183.16 1555.56 1189.79 1531.97C1175.48 1555.84 1152.33 1574.52 1125.65 1583.75C1143.56 1567.11 1157.84 1546.99 1167.61 1524.64C1153.76 1544.32 1132.96 1564.66 1109.3 1572.14C1128.52 1558.86 1143.25 1539.48 1150.7 1517.66C1140.51 1532.27 1126.94 1544.22 1111.13 1552.51C1119.02 1541.47 1124.7 1529.03 1127.88 1515.87C1109.75 1531.13 1094.17 1549.15 1081.72 1569.27C1086.87 1552.55 1092.02 1535.83 1097.16 1519.1C1083.82 1540.09 1066.62 1558.38 1046.47 1573.03C1060.51 1557.93 1069.66 1539 1072.75 1518.67L1032.64 1569.52C1039.01 1552.14 1043.98 1534.29 1047.49 1516.14C1032.93 1534.79 1019.79 1554.5 1008.18 1575.1C1011.66 1547.6 1013.32 1519.89 1013.14 1492.17C1002.99 1517.64 995.461 1544.07 990.668 1571.05C990.658 1543.63 989.667 1516.25 987.698 1488.92C980.292 1519.53 976.963 1550.98 977.797 1582.46L961.662 1490.67C956.068 1521.34 955.853 1552.75 961.027 1583.49L933.809 1489.78C929.866 1520.44 933.314 1551.59 943.869 1580.66L906.486 1504.78C906.817 1528.82 911.827 1552.57 921.24 1574.72C910.475 1552.88 899.707 1531.05 888.937 1509.22C891.096 1532.83 896.732 1555.99 905.667 1577.97L864.148 1515.12L883.84 1586.65C872.241 1563.92 857.999 1542.62 841.405 1523.19C848.295 1548.51 857.633 1573.11 869.286 1596.65C854.004 1573.84 836.103 1552.89 815.943 1534.21C823.371 1552.73 827.791 1572.31 829.039 1592.21C823.629 1572.7 816.144 1553.82 806.711 1535.89C808.631 1552.5 807.127 1569.32 802.29 1585.33C801.358 1566.91 800.428 1548.49 799.499 1530.07C797.865 1550.56 790.658 1570.22 778.65 1586.94C783.162 1571.13 786.275 1554.95 787.952 1538.6C782.093 1560.55 767.804 1580.27 748.548 1592.96C761.379 1577.37 769.188 1558.29 770.957 1538.22C757.584 1560.07 740.092 1579.14 719.444 1594.39C736.265 1575.62 749.296 1553.8 757.825 1530.13C741.902 1548.95 724.009 1566.02 704.45 1581.07C718.24 1564.2 729.933 1545.74 739.274 1526.08C725.341 1544.48 707.116 1559.23 686.172 1569.05C704.167 1554.99 717.524 1535.89 724.529 1514.22C708.54 1535.4 687.771 1552.55 663.897 1564.28C683.332 1550.4 697.14 1529.22 701.789 1506.13C687.503 1523.17 670.228 1537.5 650.801 1548.43C662.511 1534.54 672.842 1519.55 681.649 1503.68C668.786 1517.22 654.502 1529.36 639.042 1539.88C647.256 1527.74 653.596 1514.45 657.85 1500.45C647.865 1512.75 637.258 1524.53 626.069 1535.75C632.962 1524.35 636.023 1511.06 634.809 1497.81C630.647 1504.77 625.675 1510.99 620.67 1517.25C617.232 1521.55 613.779 1525.87 610.562 1530.46L602.882 1500.41C599.88 1512 597.896 1523.83 596.953 1535.76C591.938 1523.2 589.572 1509.74 590.002 1496.23C586.192 1512.35 584.309 1528.86 584.392 1545.42C578.97 1528.57 576.23 1510.98 576.271 1493.29C573.21 1520.64 571.089 1548.06 569.907 1575.54L551.865 1493.42L552.55 1573.9C548.117 1547.81 542.684 1521.93 536.252 1496.27C534.577 1522.93 535.943 1549.68 540.326 1576.03C525.697 1549.97 513.765 1522.49 504.712 1494.04C503.734 1522.03 509.945 1549.81 522.757 1574.76C504.201 1553.93 489.978 1529.64 480.909 1503.31C484.161 1527.59 489.29 1551.58 496.249 1575.07L461.233 1505.92C464.306 1523.93 463.513 1542.38 458.907 1560.07C456.72 1540.88 453.084 1521.88 448.032 1503.23C450.692 1524.54 440.03 1546.91 421.625 1558.63C426.045 1543.38 427.996 1527.52 427.403 1511.66C424.253 1531.07 413.493 1549.22 397.822 1561.54C403.074 1545.8 406.785 1529.6 408.905 1513.15C401.669 1533.07 387.269 1550.42 368.828 1561.47C377.598 1546.65 383.455 1530.3 386.088 1513.31C378.212 1533 362.916 1549.81 343.791 1559.75C353.594 1544.47 359.677 1527.13 361.555 1509.1C352.803 1526.14 339.906 1540.74 324.038 1551.57C334.555 1536.09 342.99 1519.32 349.128 1501.66C342.627 1516.75 331.884 1529.64 318.191 1538.8C323.417 1525.55 328.643 1512.3 333.869 1499.06C327.901 1512.73 317.702 1524.15 304.757 1531.65C310.905 1520.19 314.851 1507.68 316.394 1494.78C309.835 1507.92 301.183 1519.91 290.774 1530.31L297.599 1496.17C294.2 1506.28 289.27 1515.81 282.979 1524.44V1500.39C276.552 1509.78 272.116 1520.36 269.941 1531.51C267.837 1519.85 264.464 1508.45 259.881 1497.51C255.877 1523.97 257.907 1550.99 265.822 1576.57C250.645 1551.56 237.875 1525.18 227.681 1497.79C231.612 1524.83 237.036 1551.63 243.93 1578.08C225.118 1552.34 211.717 1523.1 204.53 1492.09C207.811 1522.79 214.311 1553.05 223.924 1582.4C200.577 1558.91 182.909 1530.45 172.256 1499.16C177.506 1528.49 184.997 1557.38 194.666 1585.57C170.109 1565.44 152.112 1537.79 143.857 1507.54C149.495 1530.4 153.347 1553.67 155.38 1577.12L124.56 1503.2C131.181 1530.02 126.052 1559.43 110.707 1582.61C111.522 1556.83 108.78 1531.07 102.558 1506.03C97.5445 1533.68 85.7557 1559.66 68.235 1581.69C76.2971 1558.33 79.3628 1533.56 77.2355 1508.95C68.5717 1532.41 55.6844 1554.1 39.2044 1572.97C47.6881 1554.24 51.3175 1533.7 49.762 1513.22C51.2408 1533.17 29.1949 1555.24 15.1651 1566.88C22.4808 1550.42 25.3216 1532.33 23.4037 1514.43C24.5899 1525.69 14.9879 1543.52 8.8576 1554.91L8.85427 1554.91C8.1213 1556.27 7.43801 1557.54 6.8288 1558.7C4.51858 1563.07 2.25725 1567.49 0 1571.92V1403L3.42472e-05 253V47.3853C3.5739 41.1898 7.91177 35.1047 12.2774 28.9807C18.6524 20.038 25.0866 11.0122 29.2873 1.43839C16.9466 33.8809 12.0737 68.6612 15.0266 103.223C17.4773 75.8817 24.5752 49.1524 36.0183 24.1728C33.5328 56.0169 32.5984 87.8759 33.215 119.75C48.8552 81.7908 56.3693 41.0073 55.2782 0C58.5351 41.7601 63.4679 83.3042 70.0767 124.632C71.1971 90.7599 75.6624 57.0792 83.4083 24.0756C80.9438 58.8292 81.4276 93.7275 84.8548 128.4C93.6744 101.056 98.4855 72.5899 99.1398 43.8806C100.588 69.3337 102.037 94.7841 103.487 120.232C110.078 94.3519 112.972 67.6781 112.084 40.9957C115.138 69.1793 120.286 97.0993 127.486 124.527C129.135 91.0323 129.723 57.5377 129.25 24.0432L145.629 125.366C151.843 86.1893 151.672 46.2737 145.124 7.15136C156.467 47.858 164.258 89.4617 168.41 131.5C171.083 92.3977 171.986 53.2834 171.119 14.1569C174.101 53.6634 179.957 92.9033 188.639 131.569C184.777 92.6556 193.313 52.6486 212.768 18.4841C200.992 53.4941 196.365 90.4903 199.16 127.302C201.89 93.6037 217.935 61.1005 243.225 38.0339C224.804 62.7293 215.27 93.6241 216.655 124.154C222.14 94.9652 241.599 68.5801 268.181 54.2166C248.645 73.6541 235.241 98.3416 229.616 125.248C240.797 97.9513 263.614 75.4194 291.467 64.2244C271.563 79.0822 256.838 100.435 250.213 124.032C264.522 100.164 287.665 81.4809 314.353 72.251C296.443 88.889 282.159 109.007 272.386 131.358C286.239 111.679 307.039 91.3388 330.7 83.8552C311.48 97.1369 296.751 116.521 289.299 138.335C299.486 123.732 313.057 111.781 328.866 103.49C320.979 114.527 315.296 126.967 312.124 140.134C330.253 124.873 345.83 106.846 358.276 86.7279C353.128 103.448 347.983 120.171 342.841 136.897C356.181 115.914 373.378 97.6199 393.532 82.9719C379.492 98.0654 370.335 117.004 367.247 137.334L407.361 86.4848C400.991 103.857 396.024 121.706 392.505 139.863C407.066 121.207 420.207 101.497 431.82 80.8974C428.341 108.405 426.685 136.11 426.861 163.833C437.01 138.359 444.539 111.928 449.332 84.9451C449.342 112.367 450.333 139.745 452.302 167.078C459.708 136.466 463.037 105.018 462.203 73.5435L478.338 165.332C483.932 134.658 484.147 103.253 478.973 72.5063L506.191 166.219C510.134 135.561 506.686 104.41 496.131 75.3384L533.514 151.224C533.183 127.181 528.173 103.43 518.76 81.2824C529.525 103.116 540.293 124.95 551.063 146.783C548.904 123.174 543.268 100.008 534.333 78.0288L575.852 140.884L556.16 69.3459C567.759 92.0799 582.001 113.381 598.595 132.813C591.705 107.49 582.367 82.8892 570.714 59.3542C585.996 82.1564 603.897 103.11 624.057 121.792C616.629 103.269 612.209 83.6896 610.961 63.7869C616.371 83.2955 623.856 102.175 633.289 120.106C631.369 103.502 632.873 86.6818 637.71 70.6749C638.642 89.0914 639.572 107.509 640.501 125.929C642.135 105.442 649.342 85.7834 661.35 69.0582C656.838 84.8714 653.725 101.047 652.048 117.4C657.907 95.4513 672.196 75.7274 691.452 63.0373C678.621 78.6301 670.812 97.7054 669.043 117.777C682.416 95.9292 699.908 76.8567 720.556 61.607C703.735 80.3803 690.704 102.197 682.175 125.868C698.098 107.053 715.991 89.9771 735.55 74.9292C721.76 91.7981 710.067 110.26 700.726 129.916C714.659 111.521 732.884 96.7737 753.828 86.9467C735.833 101.013 722.476 120.106 715.471 141.775C731.46 120.597 752.229 103.451 776.103 91.7197C756.668 105.601 742.86 126.78 738.211 149.875C752.497 132.827 769.772 118.495 789.199 107.574C777.489 121.465 767.158 136.449 758.351 152.318C771.214 138.776 785.498 126.643 800.958 116.123C792.744 128.257 786.404 141.546 782.15 155.547C792.135 143.253 802.742 131.471 813.931 120.248C807.038 131.651 803.977 144.94 805.191 158.189C809.353 151.226 814.325 145.007 819.33 138.747C822.768 134.448 826.221 130.129 829.438 125.536L837.118 155.588C840.12 143.997 842.104 132.168 843.047 120.236C848.062 132.802 850.428 146.26 849.998 159.773C853.808 143.651 855.691 127.138 855.608 110.577C861.03 127.429 863.77 145.021 863.729 162.715C866.79 135.357 868.911 107.94 870.093 80.4639L888.135 162.581L887.45 82.0967C891.883 108.19 897.316 134.067 903.748 159.728C905.423 133.074 904.057 106.318 899.674 79.9696C914.303 106.033 926.236 133.506 935.288 161.965C936.266 133.969 930.055 106.186 917.243 81.2378C935.799 102.074 950.022 126.359 959.091 152.691C955.839 128.413 950.71 104.42 943.751 80.9258L978.767 150.077C975.694 132.068 976.487 113.616 981.094 95.9335C983.281 115.122 986.916 134.121 991.968 152.768C989.308 131.463 999.97 109.09 1018.37 97.3678C1013.95 112.621 1012 128.477 1012.6 144.34C1015.75 124.928 1026.51 106.784 1042.18 94.4587C1036.93 110.198 1033.21 126.404 1031.1 142.853C1038.33 122.934 1052.73 105.577 1071.17 94.5276C1062.4 109.351 1056.54 125.697 1053.91 142.695C1061.79 122.995 1077.08 106.189 1096.21 96.2536C1086.41 111.532 1080.32 128.874 1078.44 146.901C1087.2 129.858 1100.09 115.26 1115.96 104.434C1105.44 119.908 1097.01 136.684 1090.87 154.336C1097.37 139.252 1108.12 126.356 1121.81 117.197C1116.58 130.454 1111.36 143.701 1106.13 156.937C1112.1 143.269 1122.3 131.853 1135.24 124.349C1129.1 135.814 1125.15 148.317 1123.61 161.22C1130.17 148.082 1138.82 136.086 1149.23 125.694L1142.4 159.826C1145.8 149.721 1150.73 140.19 1157.02 131.565V155.608C1163.45 146.224 1167.88 135.636 1170.06 124.49C1172.16 136.152 1175.54 147.552 1180.12 158.489C1184.12 132.028 1182.09 105.01 1174.18 79.4348C1189.35 104.443 1202.12 130.819 1212.32 158.213C1208.39 131.174 1202.96 104.37 1196.07 77.9235C1214.88 103.659 1228.28 132.903 1235.47 163.906C1232.19 133.214 1225.69 102.947 1216.08 73.6002C1239.42 97.09 1257.09 125.553 1267.74 156.836C1262.49 127.508 1255 98.6218 1245.33 70.4277C1269.89 90.5568 1287.89 118.206 1296.14 148.465C1290.5 125.598 1286.65 102.333 1284.62 78.8756L1315.44 152.804C1308.82 125.981 1313.95 96.5737 1329.29 73.3895C1328.48 99.1659 1331.22 124.932 1337.44 149.968C1342.46 122.325 1354.24 96.3374 1371.77 74.3052C1363.7 97.6657 1360.64 122.443 1362.76 147.05C1371.43 123.592 1384.32 101.899 1400.8 83.0327C1392.31 101.76 1388.68 122.302 1390.24 142.782C1388.76 122.833 1410.81 100.757 1424.83 89.1185C1417.52 105.583 1414.68 123.669 1416.6 141.569C1415.41 130.312 1425.01 112.48 1431.14 101.094C1431.88 99.7307 1432.56 98.4594 1433.17 97.303Z" fill="#0D3727"/>
</svg>
